<svg width="51" height="46" viewBox="0 0 51 46" fill="none" xmlns="http://www.w3.org/2000/svg">
<rect x="1.5" y="2.5" width="37" height="37" rx="5.5" stroke="black"/>
<path d="M12.5394 14.6082C12.4385 11.3287 16.1113 9.3293 18.8109 11.194L29.07 18.2802C31.5225 19.9743 31.3272 23.6594 28.7092 25.0846L18.8334 30.461C16.2155 31.8862 13.0144 30.0502 12.9228 27.0708L12.5394 14.6082Z" fill="#C92A2A"/>
<g clip-path="url(#clip0_307_205408)">
<path d="M36.6625 23.8583L42.1417 29.3388L29.3542 42.125H23.875V36.6445L36.6625 23.857V23.8583ZM38.4889 22.0318L41.2285 19.2909C41.4708 19.0488 41.7992 18.9127 42.1417 18.9127C42.4843 18.9127 42.8127 19.0488 43.055 19.2909L46.7091 22.945C46.9512 23.1873 47.0873 23.5157 47.0873 23.8583C47.0873 24.2008 46.9512 24.5292 46.7091 24.7715L43.9682 27.5111L38.4889 22.0318Z" fill="black"/>
<path d="M21.2965 45.7897C17.1902 45.7897 13.5905 46.278 10.009 43.9756C6.33352 41.6128 3.54859 38.101 -0.472313 36.1651C-5.13419 33.9204 -11.311 34.9053 -16.3202 34.9053C-20.2267 34.9053 -23.1481 36.3168 -23.1481 40.5742C-23.1481 44.8884 -21.7637 51.3061 -16.6981 52.4917C-14.9131 52.9094 -13.4488 53.5784 -11.7346 54.1294C-8.77249 55.0815 -5.22132 54.8605 -2.13521 55.5151C1.62846 56.3135 3.56622 55.217 6.43122 52.8444C8.73552 50.9361 11.9111 49.4178 14.9473 49.4178" stroke="black" stroke-width="3" stroke-linecap="round"/>
</g>
<defs>
<clipPath id="clip0_307_205408">
<rect width="31" height="31" fill="white" transform="translate(20 15)"/>
</clipPath>
</defs>
</svg>
