<svg width="137" height="46" viewBox="0 0 137 46" fill="none" xmlns="http://www.w3.org/2000/svg">
<path d="M56.918 22.2363L60.3066 15.7227H62.8359L58.0898 24.4531V30H55.7559V24.541L51 15.7227H53.5488L56.918 22.2363ZM74.0469 24.5703C74.0469 25.4688 73.9297 26.2663 73.6953 26.9629C73.4609 27.6595 73.1191 28.2487 72.6699 28.7305C72.2207 29.2057 71.6803 29.5703 71.0488 29.8242C70.4173 30.0716 69.7044 30.1953 68.9102 30.1953C68.168 30.1953 67.4876 30.0716 66.8691 29.8242C66.2507 29.5703 65.7135 29.2057 65.2578 28.7305C64.8086 28.2487 64.4603 27.6595 64.2129 26.9629C63.9655 26.2663 63.8418 25.4688 63.8418 24.5703C63.8418 23.3789 64.0469 22.3698 64.457 21.543C64.8737 20.7096 65.4661 20.0749 66.2344 19.6387C67.0026 19.2025 67.9173 18.9844 68.9785 18.9844C69.9746 18.9844 70.8535 19.2025 71.6152 19.6387C72.377 20.0749 72.9727 20.7096 73.4023 21.543C73.832 22.3763 74.0469 23.3854 74.0469 24.5703ZM66.2051 24.5703C66.2051 25.3581 66.2995 26.0319 66.4883 26.5918C66.6836 27.1517 66.9831 27.5814 67.3867 27.8809C67.7904 28.1738 68.3112 28.3203 68.9492 28.3203C69.5872 28.3203 70.1081 28.1738 70.5117 27.8809C70.9154 27.5814 71.2116 27.1517 71.4004 26.5918C71.5892 26.0319 71.6836 25.3581 71.6836 24.5703C71.6836 23.7826 71.5892 23.1152 71.4004 22.5684C71.2116 22.015 70.9154 21.5951 70.5117 21.3086C70.1081 21.0156 69.584 20.8691 68.9395 20.8691C67.9889 20.8691 67.2956 21.1882 66.8594 21.8262C66.4232 22.4642 66.2051 23.3789 66.2051 24.5703ZM86.1074 19.1895V30H84.3008L83.9883 28.5449H83.8613C83.6335 28.916 83.3438 29.2253 82.9922 29.4727C82.6406 29.7135 82.25 29.8926 81.8203 30.0098C81.3906 30.1335 80.9382 30.1953 80.4629 30.1953C79.6491 30.1953 78.9525 30.0586 78.373 29.7852C77.8001 29.5052 77.3607 29.0755 77.0547 28.4961C76.7487 27.9167 76.5957 27.168 76.5957 26.25V19.1895H78.9004V25.8203C78.9004 26.6602 79.0697 27.2884 79.4082 27.7051C79.7533 28.1217 80.2871 28.3301 81.0098 28.3301C81.7064 28.3301 82.2598 28.1868 82.6699 27.9004C83.0801 27.6139 83.3698 27.1908 83.5391 26.6309C83.7148 26.071 83.8027 25.3841 83.8027 24.5703V19.1895H86.1074ZM93.0312 30.1953C91.7422 30.1953 90.707 29.7266 89.9258 28.7891C89.151 27.8451 88.7637 26.4551 88.7637 24.6191C88.7637 22.7637 89.1576 21.3607 89.9453 20.4102C90.7396 19.4596 91.7845 18.9844 93.0801 18.9844C93.627 18.9844 94.1055 19.0592 94.5156 19.209C94.9258 19.3522 95.2773 19.5475 95.5703 19.7949C95.8698 20.0423 96.1237 20.319 96.332 20.625H96.4395C96.4069 20.4232 96.3678 20.1335 96.3223 19.7559C96.2832 19.3717 96.2637 19.0169 96.2637 18.6914V14.8047H98.5684V30H96.7715L96.3613 28.5254H96.2637C96.0684 28.8379 95.821 29.1211 95.5215 29.375C95.2285 29.6224 94.877 29.821 94.4668 29.9707C94.0632 30.1204 93.5846 30.1953 93.0312 30.1953ZM93.6758 28.3301C94.6589 28.3301 95.3522 28.0469 95.7559 27.4805C96.1595 26.9141 96.3678 26.0645 96.3809 24.9316V24.6289C96.3809 23.418 96.1855 22.4902 95.7949 21.8457C95.4043 21.1947 94.6914 20.8691 93.6562 20.8691C92.8294 20.8691 92.1979 21.2044 91.7617 21.875C91.332 22.5391 91.1172 23.4668 91.1172 24.6582C91.1172 25.8496 91.332 26.7611 91.7617 27.3926C92.1979 28.0176 92.8359 28.3301 93.6758 28.3301ZM107.338 18.9844C107.52 18.9844 107.719 18.9941 107.934 19.0137C108.148 19.0332 108.334 19.0592 108.49 19.0918L108.275 21.2402C108.139 21.2012 107.969 21.1719 107.768 21.1523C107.572 21.1328 107.396 21.123 107.24 21.123C106.83 21.123 106.439 21.1914 106.068 21.3281C105.697 21.4583 105.368 21.6602 105.082 21.9336C104.796 22.2005 104.571 22.5358 104.408 22.9395C104.245 23.3431 104.164 23.8118 104.164 24.3457V30H101.859V19.1895H103.656L103.969 21.0938H104.076C104.291 20.7096 104.558 20.3581 104.877 20.0391C105.196 19.7201 105.561 19.4661 105.971 19.2773C106.387 19.082 106.843 18.9844 107.338 18.9844ZM114.73 18.9844C116.098 18.9844 117.13 19.2871 117.826 19.8926C118.529 20.498 118.881 21.4421 118.881 22.7246V30H117.25L116.811 28.4668H116.732C116.426 28.8574 116.111 29.1797 115.785 29.4336C115.46 29.6875 115.082 29.8763 114.652 30C114.229 30.1302 113.712 30.1953 113.1 30.1953C112.455 30.1953 111.879 30.0781 111.371 29.8438C110.863 29.6029 110.463 29.2383 110.17 28.75C109.877 28.2617 109.73 27.6432 109.73 26.8945C109.73 25.7812 110.144 24.9447 110.971 24.3848C111.804 23.8249 113.061 23.5156 114.74 23.457L116.615 23.3887V22.8223C116.615 22.0736 116.439 21.5397 116.088 21.2207C115.743 20.9017 115.255 20.7422 114.623 20.7422C114.083 20.7422 113.559 20.8203 113.051 20.9766C112.543 21.1328 112.048 21.3249 111.566 21.5527L110.824 19.9316C111.352 19.6517 111.951 19.4238 112.621 19.248C113.298 19.0723 114.001 18.9844 114.73 18.9844ZM116.605 24.834L115.209 24.8828C114.063 24.9219 113.259 25.1172 112.797 25.4688C112.335 25.8203 112.104 26.3021 112.104 26.9141C112.104 27.4479 112.263 27.8385 112.582 28.0859C112.901 28.3268 113.321 28.4473 113.842 28.4473C114.636 28.4473 115.294 28.2227 115.814 27.7734C116.342 27.3177 116.605 26.6504 116.605 25.7715V24.834ZM130.932 29.9902L129.564 24.9609C129.499 24.7135 129.421 24.4141 129.33 24.0625C129.239 23.7109 129.148 23.3496 129.057 22.9785C128.965 22.6009 128.881 22.2526 128.803 21.9336C128.731 21.6146 128.676 21.3672 128.637 21.1914H128.559C128.526 21.3672 128.474 21.6146 128.402 21.9336C128.331 22.2526 128.249 22.6009 128.158 22.9785C128.067 23.3561 127.976 23.724 127.885 24.082C127.8 24.4401 127.722 24.7461 127.65 25L126.215 29.9902H123.695L120.668 19.1797H122.992L124.398 24.5508C124.49 24.9154 124.577 25.3092 124.662 25.7324C124.753 26.1556 124.831 26.5592 124.896 26.9434C124.962 27.3275 125.01 27.6432 125.043 27.8906H125.121C125.147 27.7148 125.183 27.4935 125.229 27.2266C125.274 26.9531 125.326 26.6699 125.385 26.377C125.443 26.0775 125.502 25.7975 125.561 25.5371C125.619 25.2702 125.674 25.0553 125.727 24.8926L127.387 19.1797H129.896L131.488 24.8926C131.56 25.14 131.638 25.4525 131.723 25.8301C131.807 26.2012 131.882 26.5755 131.947 26.9531C132.019 27.3242 132.064 27.6335 132.084 27.8809H132.162C132.188 27.6595 132.234 27.36 132.299 26.9824C132.37 26.5983 132.452 26.1914 132.543 25.7617C132.634 25.3255 132.729 24.9219 132.826 24.5508L134.262 19.1797H136.547L133.5 29.9902H130.932Z" fill="black"/>
<rect x="1.5" y="2.5" width="37" height="37" rx="5.5" stroke="black"/>
<path d="M12.5394 14.6082C12.4385 11.3287 16.1113 9.3293 18.8109 11.194L29.07 18.2802C31.5225 19.9743 31.3272 23.6594 28.7092 25.0846L18.8334 30.461C16.2155 31.8862 13.0144 30.0502 12.9228 27.0708L12.5394 14.6082Z" fill="#C92A2A"/>
<g clip-path="url(#clip0_306_205447)">
<path d="M36.6625 23.8583L42.1418 29.3388L29.3542 42.125H23.875V36.6445L36.6625 23.857V23.8583ZM38.4889 22.0318L41.2285 19.2909C41.4708 19.0488 41.7992 18.9127 42.1418 18.9127C42.4843 18.9127 42.8127 19.0488 43.055 19.2909L46.7091 22.945C46.9512 23.1873 47.0873 23.5157 47.0873 23.8583C47.0873 24.2008 46.9512 24.5292 46.7091 24.7715L43.9682 27.5111L38.4889 22.0318Z" fill="black"/>
<path d="M21.2965 45.7897C17.1901 45.7897 13.5905 46.278 10.0089 43.9756C6.33351 41.6128 3.54857 38.101 -0.472328 36.1651C-5.13421 33.9204 -11.311 34.9053 -16.3202 34.9053C-20.2267 34.9053 -23.1482 36.3168 -23.1482 40.5742C-23.1482 44.8884 -21.7637 51.3061 -16.6981 52.4917C-14.9132 52.9094 -13.4489 53.5784 -11.7347 54.1294C-8.77251 55.0815 -5.22134 54.8605 -2.13522 55.5151C1.62844 56.3135 3.5662 55.217 6.43121 52.8444C8.73551 50.9361 11.911 49.4178 14.9472 49.4178" stroke="black" stroke-width="3" stroke-linecap="round"/>
</g>
<defs>
<clipPath id="clip0_306_205447">
<rect width="31" height="31" fill="white" transform="translate(20 15)"/>
</clipPath>
</defs>
</svg>
